<?xml version="1.0" encoding="UTF-8" standalone="no"?>
<svg
   xmlns:dc="http://purl.org/dc/elements/1.1/"
   xmlns:cc="http://creativecommons.org/ns#"
   xmlns:rdf="http://www.w3.org/1999/02/22-rdf-syntax-ns#"
   xmlns:svg="http://www.w3.org/2000/svg"
   xmlns="http://www.w3.org/2000/svg"
   xmlns:sodipodi="http://sodipodi.sourceforge.net/DTD/sodipodi-0.dtd"
   xmlns:inkscape="http://www.inkscape.org/namespaces/inkscape"
   aria-hidden="true"
   focusable="false"
   data-prefix="fas"
   data-icon="trash"
   class="svg-inline--fa fa-trash fa-w-14"
   role="img"
   viewBox="0 0 448 512"
   version="1.1"
   id="svg4"
   sodipodi:docname="trash-solid.svg"
   inkscape:version="1.0.1 (3bc2e813f5, 2020-09-07)">
  <metadata
     id="metadata10">
    <rdf:RDF>
      <cc:Work
         rdf:about="">
        <dc:format>image/svg+xml</dc:format>
        <dc:type
           rdf:resource="http://purl.org/dc/dcmitype/StillImage" />
      </cc:Work>
    </rdf:RDF>
  </metadata>
  <defs
     id="defs8" />
  <sodipodi:namedview
     pagecolor="#ffffff"
     bordercolor="#666666"
     borderopacity="1"
     objecttolerance="10"
     gridtolerance="10"
     guidetolerance="10"
     inkscape:pageopacity="0"
     inkscape:pageshadow="2"
     inkscape:window-width="1920"
     inkscape:window-height="1015"
     id="namedview6"
     showgrid="false"
     inkscape:zoom="1.1321724"
     inkscape:cx="287.07486"
     inkscape:cy="195.72283"
     inkscape:window-x="0"
     inkscape:window-y="0"
     inkscape:window-maximized="1"
     inkscape:current-layer="svg4" />
  <path
     fill="#fff"
     d="m 392.1108,74.957584 h -96.987 L 287.52648,59.843777 A 19.3974,19.3974 0 0 0 270.14965,49.094384 H 177.76953 A 19.171097,19.171097 0 0 0 160.47352,59.843777 L 152.8762,74.957584 H 55.889201 a 12.9316,12.9316 0 0 0 -12.9316,12.9316 v 25.863196 a 12.9316,12.9316 0 0 0 12.9316,12.9316 H 392.1108 a 12.9316,12.9316 0 0 0 12.9316,-12.9316 V 87.889184 a 12.9316,12.9316 0 0 0 -12.9316,-12.9316 z M 85.955171,426.53546 a 38.7948,38.7948 0 0 0 38.713979,36.37012 h 198.6617 a 38.7948,38.7948 0 0 0 38.71398,-36.37012 L 379.1792,152.54718 H 68.820801 Z"
     id="path2"
     style="fill:#ffffff;stroke-width:0.808225" />
</svg>
